<?xml version="1.0" encoding="iso-8859-1"?>
<!-- Generator: Adobe Illustrator 19.0.0, SVG Export Plug-In . SVG Version: 6.00 Build 0)  -->
<svg version="1.1" id="Layer_1" xmlns="http://www.w3.org/2000/svg" xmlns:xlink="http://www.w3.org/1999/xlink" x="0px" y="0px"
	 viewBox="0 0 512 512" style="enable-background:new 0 0 512 512;" xml:space="preserve">
<g>
	<path style="fill:#B3404A;" d="M255.999,512H142.65c-26.051,0-47.79-19.533-50.565-45.437L61.613,153.755
		c-0.787-8.084,5.128-15.276,13.211-16.064c8.096-0.781,15.276,5.128,16.064,13.211l30.456,312.668
		c1.156,10.78,10.323,19.017,21.305,19.017h113.35c8.122,0,14.707,6.586,14.707,14.707S264.122,512,255.999,512z"/>
	<path style="fill:#B3404A;" d="M369.35,512h-36.038c-8.122,0-14.707-6.586-14.707-14.707s6.584-14.707,14.707-14.707h36.038
		c10.955,0,20.099-8.192,21.31-19.07l21.423-228.35c0.759-8.086,7.928-14.045,16.015-13.267c8.087,0.759,14.027,7.93,13.268,16.015
		l-21.432,228.455c-0.006,0.065-0.013,0.129-0.021,0.194C417.14,492.465,395.401,512,369.35,512z"/>
	<path style="fill:#B3404A;" d="M465.557,167.191H46.443c-8.122,0-14.707-6.586-14.707-14.707s6.584-14.707,14.707-14.707h419.114
		c8.122,0,14.707,6.586,14.707,14.707S473.679,167.191,465.557,167.191z"/>
</g>
<path style="fill:#F4B2B0;" d="M425.876,152.483H86.123V96.312c0-13.246,10.739-23.985,23.985-23.985h291.785
	c13.246,0,23.985,10.739,23.985,23.985v56.172H425.876z"/>
<path style="fill:#B3404A;" d="M425.876,167.191H86.123c-8.122,0-14.707-6.586-14.707-14.707V96.312
	c0-21.335,17.357-38.691,38.691-38.691h291.785c21.333,0,38.691,17.357,38.691,38.691v56.172
	C440.582,160.605,433.998,167.191,425.876,167.191z M100.829,137.778h310.34V96.312c0-5.116-4.162-9.278-9.278-9.278H110.108
	c-5.116,0-9.278,4.162-9.278,9.278L100.829,137.778L100.829,137.778z"/>
<path style="fill:#F4B2B0;" d="M320.764,72.327H191.236V29.707c0-8.284,6.716-15.001,15.001-15.001h99.526
	c8.284,0,15.001,6.716,15.001,15.001V72.327z"/>
<g>
	<path style="fill:#B3404A;" d="M320.762,87.035H191.236c-8.122,0-14.707-6.586-14.707-14.707V29.707
		C176.53,13.326,189.857,0,206.237,0h99.526c16.38,0,29.707,13.327,29.707,29.707v42.619
		C335.469,80.449,328.885,87.035,320.762,87.035z M205.943,57.622h100.113V29.707c0-0.162-0.132-0.294-0.294-0.294h-99.526
		c-0.162,0-0.294,0.132-0.294,0.294v27.914H205.943z"/>
	<path style="fill:#B3404A;" d="M178.674,510.571c-7.722,0-14.201-6.022-14.667-13.831l-12.69-212.862
		c-0.484-8.108,5.697-15.071,13.805-15.555c8.099-0.478,15.073,5.699,15.557,13.806l12.69,212.862
		c0.484,8.108-5.697,15.071-13.805,15.555C179.265,510.562,178.968,510.571,178.674,510.571z"/>
	<path style="fill:#B3404A;" d="M333.325,512c-0.293,0-0.587-0.009-0.884-0.026c-8.108-0.479-14.292-7.443-13.811-15.549
		l12.69-214.292c0.479-8.109,7.434-14.289,15.551-13.812c8.108,0.479,14.292,7.443,13.811,15.549l-12.69,214.292
		C347.53,505.973,341.049,512,333.325,512z"/>
	<path style="fill:#B3404A;" d="M255.999,512c-8.122,0-14.707-6.586-14.707-14.707V236.618c0-8.121,6.584-14.707,14.707-14.707
		s14.707,6.586,14.707,14.707v260.676C270.706,505.414,264.122,512,255.999,512z"/>
</g>
<g>
</g>
<g>
</g>
<g>
</g>
<g>
</g>
<g>
</g>
<g>
</g>
<g>
</g>
<g>
</g>
<g>
</g>
<g>
</g>
<g>
</g>
<g>
</g>
<g>
</g>
<g>
</g>
<g>
</g>
</svg>
